<?xml version="1.0" standalone="no"?>
<!DOCTYPE svg PUBLIC "-//W3C//DTD SVG 20010904//EN" "http://www.w3.org/TR/2001/REC-SVG-20010904/DTD/svg10.dtd">
<!--  width="792.001pt" height="612.001pt"-->
<svg viewBox="315 185 360 355" xmlns="http://www.w3.org/2000/svg" xmlns:xlink="http://www.w3.org/1999/xlink" width="200pt">
<defs>
  <clipPath id="clippath0" clipPathUnits="userSpaceOnUse">
   <path fill="none" stroke="#000" d="M-316.719 -473.207L673.283 -473.207L673.283 291.794L-316.719 291.794L-316.719 -473.207Z"/>
  </clipPath>
  <clipPath id="clippath1" clipPathUnits="userSpaceOnUse">
   <path fill="none" stroke="#000" d="M-582.693 -320.865L407.309 -320.865L407.309 444.136L-582.693 444.136L-582.693 -320.865Z"/>
  </clipPath>
  <clipPath id="clippath2" clipPathUnits="userSpaceOnUse">
   <path fill="none" stroke="#000" d="M-486.542 -320.866L503.459 -320.866L503.459 444.136L-486.542 444.136L-486.542 -320.866Z"/>
  </clipPath>
  <clipPath id="clippath3" clipPathUnits="userSpaceOnUse">
   <path fill="none" stroke="#000" d="M130.188 2.645C123.745 4.27501 122.258 12.8675 121.585 18.4038C121.526 18.8813 121.486 19.3725 121.435 19.855C116.626 21.755 112.026 23.9888 107.836 26.53C104.071 28.81 107.506 34.7213 111.286 32.4313C114.3 30.6051 117.568 28.9376 120.986 27.4388C120.921 33.6151 121.628 39.8876 123.696 45.5288C123.726 45.6063 123.763 45.6751 123.793 45.7526C123.695 45.9113 123.608 46.0713 123.508 46.2276C120.319 51.2376 113.318 56.6526 111.001 48.3001C110.48 46.4213 110.283 44.3901 110.268 42.3713C110.37 41.0126 110.426 39.6901 110.436 38.4513C110.468 34.5826 105.624 34.1801 104.066 36.9363C103.59 36.6676 103.088 36.4251 102.53 36.2263C98.7902 34.8951 94.7327 37.4963 91.9677 40.4763C90.0902 42.4938 86.6139 47.0438 85.9139 48.1038C84.3114 50.5288 82.6514 52.9063 81.1026 55.3738C80.2501 56.7301 79.4364 58.1139 78.6314 59.5026C78.5389 55.3838 77.8601 51.2813 74.8101 48.8938C65.8601 41.8926 58.0763 56.9926 53.9738 68.2464C53.5963 66.9176 53.2751 65.5464 52.9926 64.1489C59.4576 54.1726 64.2726 42.5276 67.2251 31.1526C68.6664 25.6013 68.5951 14.3775 59.5576 17.6525C48.3551 21.7088 46.1976 40.0988 45.5551 49.8151C45.2863 53.8401 45.4313 58.1076 45.9901 62.3564C45.7363 62.7314 45.4876 63.1151 45.2263 63.4864C45.1363 63.5914 45.0463 63.6876 44.9626 63.8051C42.5563 67.1789 40.1513 70.4139 37.1276 73.2739C32.8863 77.2851 29.125 77.8751 27.1613 72.1764C26.065 68.9901 25.4475 65.3051 25.2825 61.5489C29.7063 60.3326 34.1888 59.4926 38.4663 59.1601C42.8313 58.8176 42.8651 51.9801 38.4663 52.3251C34.2488 52.6526 29.8888 53.3801 25.5638 54.4388C25.9113 51.6676 26.5088 48.9888 27.44 46.6188C29.0513 42.5088 22.4375 40.7463 20.8488 44.7988C19.6125 47.9501 18.7313 52.1226 18.3675 56.5663C13.2525 58.3101 8.32376 60.5051 3.92126 63.1489C0.14625 65.4151 3.58251 71.3251 7.37001 69.0526C10.7013 67.0539 14.4038 65.2914 18.2713 63.8201C18.6513 70.3626 20.3425 76.6676 23.9413 80.5176C31.8638 89.0002 41.8776 78.9064 47.8701 71.2764C48.7926 74.4176 49.9601 77.4476 51.4563 80.2164C52.8351 82.7651 57.0576 82.2751 57.7026 79.4001C59.1526 72.9489 63.0376 60.8889 66.3714 56.6001C68.4426 53.9351 70.5801 53.7013 71.2001 55.8001C72.1251 58.9326 71.8789 62.5689 71.7364 65.7926C71.4989 71.1014 74.5714 75.7789 79.2801 71.2364C82.1489 68.4676 83.9276 64.0226 85.9176 60.6264C88.7389 66.6951 97.4189 66.4639 102.918 61.5814C104.636 60.0514 105.979 58.0876 107.03 55.8976C112.531 63.5514 122.291 58.4514 127.073 52.8401C127.478 52.3638 127.831 51.8438 128.211 51.3476C131.909 53.6663 136.891 53.4201 141.53 51.0163C149.057 47.1138 153.534 36.4276 153.848 28.36C154.017 23.95 147.184 23.9663 147.01 28.36C146.801 33.7488 144.153 39.2313 140.546 43.1501C138.503 45.3726 134.839 47.1426 131.801 45.8913C135.646 38.9376 137.988 30.8363 139.491 23.3775C139.609 22.7888 139.728 22.1163 139.839 21.3888C143.759 20.55 147.662 19.9638 151.422 19.6863C155.792 19.365 155.823 12.525 151.422 12.8525C147.808 13.1213 144.093 13.6238 140.359 14.3425C140.291 8.34501 138.698 2.285 132.851 2.28375C132.046 2.28375 131.16 2.4 130.188 2.645M130.948 10.0613C133.069 6.44751 133.654 14.6775 133.631 15.8738C131.841 16.3425 130.054 16.855 128.28 17.4175C128.843 14.7038 129.704 12.1838 130.948 10.0613M127.465 24.8838C129.144 24.29 130.844 23.74 132.555 23.2338C132.369 24.0713 132.171 24.9025 131.971 25.7288C131.069 29.4638 129.894 33.1438 128.423 36.6988C127.743 33.0538 127.363 28.9463 127.465 24.8838M59.3989 26.1638C59.9439 25.4825 60.6276 24.7663 61.4151 24.3088C61.4189 24.4225 61.4214 24.5488 61.4226 24.7038C61.4526 28.69 59.6589 33.0051 58.3951 36.7113C56.5901 42.0238 54.4038 47.3288 51.8238 52.4138C51.7888 42.5751 54.1226 32.7588 59.3989 26.1638M92.3502 58.1139C89.0377 53.3476 95.9939 43.3538 100.774 42.8451C102.873 42.6213 102.404 46.4701 101.761 49.3438C100.979 53.3463 97.4477 59.4114 94.4602 59.4126C93.7052 59.4126 92.9839 59.0239 92.3502 58.1139Z"/>
  </clipPath>
  <clipPath id="clippath4" clipPathUnits="userSpaceOnUse">
   <path fill="none" stroke="#000" d="M-565.586 -230.863L424.416 -230.863L424.416 534.139L-565.586 534.139L-565.586 -230.863Z"/>
  </clipPath>
  <clipPath id="clippath5" clipPathUnits="userSpaceOnUse">
   <path fill="none" stroke="#000" d="M83.3139 3.75126C53.6951 13.1613 56.5313 51.5688 54.6851 76.0751C54.1701 82.8864 53.0488 89.2989 50.5588 94.7064C45.0038 90.8939 39.6151 86.8302 32.9563 85.1026C23.78 82.7264 9.92252 85.5139 4.60501 94.0102C-1.21875 103.316 4.67376 113.484 13.9325 117.413C26.5113 122.753 42.9513 118.571 52.6563 109.393C53.1538 108.923 53.6138 108.424 54.0701 107.925C60.6051 111.324 67.4826 113.783 75.1001 114.978C90.9414 117.464 107.889 115.411 120.071 106.075C123.35 117.061 138.075 119.57 148.328 110.673C151.157 108.216 153.582 105.279 155.659 102.054C156.047 103.359 156.517 104.624 157.088 105.841C159.473 110.911 164.492 114.181 170.208 112.804C175.707 111.481 180.005 107.969 183.514 103.615C184.91 110.265 188.732 115.645 197.24 115.611C204.93 115.58 212.564 110.414 217.705 104.186C218.207 104.759 218.73 105.313 219.292 105.836C227.962 113.93 240.24 109.036 246.889 100.99C248.797 108.081 253.51 113.398 263.014 113.789C269.499 114.056 276.259 110.878 282.334 106.978C284.662 109.224 287.703 110.76 291.508 111.145C304.672 112.474 317.179 102.359 325.423 93.2339C328.394 89.9489 331.034 86.3426 333.241 82.4939C334.407 83.6939 335.557 84.8039 336.607 85.8039C341.507 90.4614 349.369 96.0177 345.418 103.515C341.613 110.736 331.783 107.38 326.863 103.861C321.807 100.24 317.007 108.591 322.007 112.173C332.494 119.683 349.791 119.524 355.043 105.649C357.451 99.2939 356.156 93.2002 351.983 87.9114C348.552 83.5614 341.647 78.8789 337.358 73.6264C338.689 69.9389 339.628 66.1089 340.069 62.1889C341.182 52.3788 330.713 51.4451 326.046 58.1589C322.273 63.5826 323.598 69.2476 326.678 74.3264C325.789 76.1064 324.797 77.8351 323.764 79.5314C319.593 86.3764 313.604 92.2527 306.973 96.6914C302.342 99.7914 296.188 102.819 290.532 101.139C291.367 100.501 292.18 99.8714 292.954 99.2739C301.108 92.9502 312.089 82.8426 312.636 71.6776C313.102 62.1376 304.139 54.9013 295.136 59.2614C285.07 64.1351 278.717 76.4801 276.902 87.0527C276.259 90.7952 276.437 94.7864 277.455 98.4239C269.942 103.008 257.133 108.996 255.533 96.2252C255.013 92.0777 255.36 87.7314 256.159 83.4651C257.292 80.0939 258.185 76.6714 258.838 73.3314C259.877 70.2239 257.79 68.0764 255.299 67.5701C252.927 66.8126 250.169 67.6339 249.555 70.7726C247.707 80.3076 244.562 89.6127 239.253 95.2027C232.439 102.38 226.954 100.831 223.268 94.9414C226.309 88.3114 228.705 81.2014 231.205 74.4264C235.25 63.4651 239.009 52.1601 240.237 40.4901C241.044 32.8438 238.864 24 229.812 23.5938C221.444 23.215 216.708 32.6901 214.14 39.1463C211.438 45.9476 209.998 53.4201 209.373 60.9114C206.76 60.4814 203.888 60.7676 201.154 61.8014C192.047 65.2464 186.318 76.6326 184.034 83.8989C181.977 90.4402 175.92 102.495 167.915 103.475C165.037 103.828 164.52 97.5077 164.313 95.6877C163.604 89.4302 164.127 81.9476 165.019 76.2914C165.93 70.5214 157.618 67.8764 155.949 72.9489C155.393 72.4489 154.783 71.9751 154.118 71.5326C149.237 68.3151 143.55 70.2101 138.143 73.1951C133.923 75.5251 126.831 83.7076 123.198 88.2527C113.015 100.996 95.6314 117.359 59.2476 99.9414C63.1264 91.4764 63.9801 81.3014 64.5676 72.4314C65.5989 56.8813 64.4339 39.5588 71.9476 25.375C76.5076 16.775 86.1314 10.4425 96.1002 11.9075C105.214 13.2488 108.784 20.63 104.789 28.765C102.064 34.3151 110.366 39.1951 113.1 33.6238C121.796 15.9113 108.9 2.28625 92.6077 2.28625C89.5877 2.28625 86.4514 2.75375 83.3139 3.75126M218.468 69.9439C218.567 64.9751 219.09 60.0239 219.853 55.3201C220.768 49.6738 222.848 35.1113 229.765 33.1976C232.307 32.4951 227.937 53.4276 227.53 54.8763C225.163 63.3526 222.138 71.6489 218.902 79.8439C218.644 77.5801 218.548 70.5051 218.468 69.9439M287.133 85.2739C288.659 79.5376 291.974 74.1639 296.217 70.0539C298.526 67.8189 302.822 65.7889 303.058 70.6826C303.442 78.6826 293.999 86.9814 286.093 92.6714C286.105 89.8952 286.654 87.0802 287.133 85.2739M192.268 96.7202C192.268 88.8002 194.388 79.4839 200.069 73.6539C201.509 72.1751 208.904 67.6439 208.984 71.7001C208.985 71.7539 208.999 71.7976 209.003 71.8501C209.017 73.0026 209.03 74.1551 209.073 75.2901C209.299 81.4626 210.054 88.4502 212.302 94.6752C209.348 99.6227 205.399 103.654 199.232 105.598C198.399 105.861 197.665 105.981 197.017 105.981C192.822 105.981 192.268 100.926 192.268 96.7202M129.018 100.903C129.068 96.3102 131.539 91.3589 134.46 87.9402C136.591 85.4426 145.228 77.9251 149.259 79.8451C154.975 82.5676 149.192 94.0564 147.535 96.7864C147.507 96.8339 147.494 96.8802 147.467 96.9302C145.309 100.384 142.579 103.41 138.96 105.445C137.27 106.396 135.605 106.875 134.135 106.875C134.134 106.875 134.133 106.875 134.133 106.875C131.153 106.875 128.975 104.905 129.018 100.903M13.3438 105.621C8.66751 100.9 15.07 96.5614 19.17 95.1977C28.6988 92.0277 35.8076 96.1152 43.4376 101.44C43.9926 101.828 44.5538 102.183 45.1138 102.559C42.0488 105.551 38.0538 107.839 32.8088 109.178C30.5676 109.749 28.1275 110.098 25.6913 110.098C21.1225 110.098 16.5638 108.876 13.3438 105.621Z"/>
  </clipPath>
 </defs>
<g id="g10">
  <g id="g12" transform="translate(316.719, 473.207)" fill="none">
   <g id="g14" transform="" fill="none" clip-path="url(#clippath0)">
    <g id="g68" transform="translate(321.119, 32.4629)" fill="none">
     <path id="path70" transform="matrix(1.25 0 0 -1.25 0.781251 32.0813)" fill="none" stroke="#000" d="M4.286 12.502C4.286 6.608 6.608 3.715 11.323 3.715C16.038 3.715 18.36 6.608 18.36 12.502C18.36 18.432 16.038 21.325 11.323 21.325C6.608 21.325 4.286 18.432 4.286 12.502M1.77636e-15 12.502C1.77636e-15 20.968 4.107 25.04 11.323 25.04C18.539 25.04 22.646 20.968 22.646 12.502C22.646 4.144 18.539 0 11.323 0C4.107 0 0 4.144 0 12.502"/>
    </g>
    <g id="g64" transform="translate(311.741, 32.7303)" fill="none">
     <path id="path66" transform="matrix(1.25 0 0 -1.25 0.781251 31.5463)" fill="none" stroke="#000" d="M4.144 2.072C4.144 0.928 3.215 0 2.072 0C0.929 0 0 0.928 0 2.072L0 22.54C0 23.683 0.929 24.612 2.072 24.612C3.215 24.612 4.144 23.683 4.144 22.54Z"/>
    </g>
    <g id="g60" transform="translate(286.734, 33.0877)" fill="none">
     <path id="path62" transform="matrix(1.25 0 0 -1.25 0.781251 31.1888)" fill="none" stroke="#000" d="M4.144 20.611L4.144 13.145L8.966 13.145C11.181 13.145 12.145 14.967 12.145 16.86C12.145 18.789 11.181 20.611 8.859 20.611ZM4.144 9.502L4.144 2.072C4.144 0.928 3.215 0 2.072 0C0.929 0 0 0.928 0 2.072L0 22.255C0 23.397 0.929 24.326 2.072 24.326L8.895 24.326C13.717 24.326 16.432 20.897 16.432 16.86C16.432 13.466 14.36 10.18 10.931 9.752L16.217 3.322C16.539 2.893 16.646 2.465 16.646 2.072C16.646 0.928 15.717 0 14.575 0C13.967 0 13.324 0.286 12.967 0.751L6.465 9.502Z"/>
    </g>
    <g id="g56" transform="translate(257.038, 32.7303)" fill="none">
     <path id="path58" transform="matrix(1.25 0 0 -1.25 0.781251 31.5463)" fill="none" stroke="#000" d="M10.466 17.825L7.537 10.323L13.396 10.323ZM6.144 6.537L3.965 1.357C3.644 0.607 2.965 0 2.036 0C0.929 0 0 0.929 0 2.036C0 2.251 0.036 2.536 0.143 2.786L8.573 23.326C8.787 23.826 9.359 24.612 10.466 24.612C11.573 24.612 12.146 23.826 12.36 23.326L20.789 2.786C20.897 2.536 20.933 2.251 20.933 2.036C20.933 0.929 20.004 0 18.897 0C17.968 0 17.289 0.607 16.968 1.357L14.788 6.537Z"/>
    </g>
    <g id="g52" transform="translate(236.316, 33.0873)" fill="none">
     <path id="path54" transform="matrix(1.25 0 0 -1.25 0.781251 31.1901)" fill="none" stroke="#000" d="M11.431 20.683L11.431 2.073C11.431 0.929 10.502 0 9.36 0C8.216 0 7.287 0.929 7.287 2.073L7.287 20.683L1.823 20.683C0.822 20.683 0 21.504 0 22.505C0 23.505 0.822 24.327 1.823 24.327L16.897 24.327C17.897 24.327 18.718 23.505 18.718 22.505C18.718 21.504 17.897 20.683 16.897 20.683Z"/>
    </g>
    <g id="g48" transform="translate(210.016, 32.7304)" fill="none">
     <path id="path50" transform="matrix(1.25 0 0 -1.25 0.781251 31.5463)" fill="none" stroke="#000" d="M18.324 22.576L18.324 2.036C18.324 0.929 17.395 0 16.288 0C15.609 0 14.967 0.357 14.609 0.893L4.072 16.11L4.072 2.036C4.072 0.929 3.143 0 2.036 0C0.928 0 0 0.929 0 2.036L0 22.576C0 23.683 0.928 24.612 2.036 24.612C2.75 24.612 3.322 24.291 3.678 23.755L14.252 8.43L14.252 22.576C14.252 23.683 15.181 24.612 16.288 24.612C17.395 24.612 18.324 23.683 18.324 22.576"/>
    </g>
    <g id="g44" transform="translate(177.729, 32.4629)" fill="none">
     <path id="path46" transform="matrix(1.25 0 0 -1.25 0.781251 32.0813)" fill="none" stroke="#000" d="M4.287 12.502C4.287 6.608 6.608 3.715 11.323 3.715C16.039 3.715 18.36 6.608 18.36 12.502C18.36 18.432 16.039 21.325 11.323 21.325C6.608 21.325 4.287 18.432 4.287 12.502M8.88178e-16 12.502C8.88178e-16 20.968 4.108 25.04 11.323 25.04C18.539 25.04 22.647 20.968 22.647 12.502C22.647 4.144 18.539 0 11.323 0C4.108 0 0 4.144 0 12.502"/>
    </g>
    <g id="g40" transform="translate(140.755, 32.7304)" fill="none">
     <path id="path42" transform="matrix(1.25 0 0 -1.25 0.781251 31.5463)" fill="none" stroke="#000" d="M18.325 22.576L18.325 2.036C18.325 0.929 17.396 0 16.289 0C15.61 0 14.967 0.357 14.61 0.893L4.072 16.11L4.072 2.036C4.072 0.929 3.143 0 2.036 0C0.929 0 0 0.929 0 2.036L0 22.576C0 23.683 0.929 24.612 2.036 24.612C2.751 24.612 3.322 24.291 3.679 23.755L14.253 8.43L14.253 22.576C14.253 23.683 15.181 24.612 16.289 24.612C17.396 24.612 18.325 23.683 18.325 22.576"/>
    </g>
    <g id="g36" transform="translate(108.467, 32.4629)" fill="none">
     <path id="path38" transform="matrix(1.25 0 0 -1.25 0.781251 32.0813)" fill="none" stroke="#000" d="M4.287 12.502C4.287 6.608 6.609 3.715 11.324 3.715C16.039 3.715 18.361 6.608 18.361 12.502C18.361 18.432 16.039 21.325 11.324 21.325C6.609 21.325 4.287 18.432 4.287 12.502M8.88178e-16 12.502C8.88178e-16 20.968 4.108 25.04 11.324 25.04C18.539 25.04 22.647 20.968 22.647 12.502C22.647 4.144 18.539 0 11.324 0C4.108 0 0 4.144 0 12.502"/>
    </g>
    <g id="g32" transform="translate(82.3449, 33.0882)" fill="none">
     <path id="path34" transform="matrix(1.25 0 0 -1.25 0.781251 30.8313)" fill="none" stroke="#000" d="M4.144 3.715L6.894 3.715C11.467 3.715 14.217 5.787 14.217 12.002C14.217 18.218 11.467 20.325 6.894 20.325L4.144 20.325ZM6.894 24.04C14.003 24.04 18.503 20.825 18.503 12.002C18.503 3.179 14.003 0 6.894 0L2.072 0C0.929 0 0 0.929 0 2.072L0 21.969C0 23.111 0.929 24.04 2.072 24.04Z"/>
    </g>
    <g id="g28" transform="translate(54.3012, 32.7304)" fill="none">
     <path id="path30" transform="matrix(1.25 0 0 -1.25 0.781251 31.5463)" fill="none" stroke="#000" d="M18.325 22.576L18.325 2.036C18.325 0.929 17.396 0 16.289 0C15.61 0 14.967 0.357 14.61 0.893L4.072 16.11L4.072 2.036C4.072 0.929 3.143 0 2.036 0C0.929 0 0 0.929 0 2.036L0 22.576C0 23.683 0.929 24.612 2.036 24.612C2.751 24.612 3.322 24.291 3.679 23.755L14.253 8.43L14.253 22.576C14.253 23.683 15.181 24.612 16.289 24.612C17.396 24.612 18.325 23.683 18.325 22.576"/>
    </g>
    <g id="g24" transform="translate(22.0147, 32.4629)" fill="none">
     <path id="path26" transform="matrix(1.25 0 0 -1.25 0.781251 32.0813)" fill="none" stroke="#000" d="M4.287 12.502C4.287 6.608 6.609 3.715 11.324 3.715C16.039 3.715 18.361 6.608 18.361 12.502C18.361 18.432 16.039 21.325 11.324 21.325C6.609 21.325 4.287 18.432 4.287 12.502M8.88178e-16 12.502C8.88178e-16 20.968 4.108 25.04 11.324 25.04C18.539 25.04 22.647 20.968 22.647 12.502C22.647 4.144 18.539 0 11.324 0C4.108 0 0 4.144 0 12.502"/>
    </g>
    <g id="g20" transform="translate(3.92901, 32.7299)" fill="none">
     <path id="path22" transform="matrix(1.25 0 0 -1.25 0.781251 31.1888)" fill="none" stroke="#000" d="M12.61 3.857C13.789 3.857 14.61 3.001 14.61 1.928C14.61 0.821 13.789 0 12.61 0L2.036 0C0.858 0 0 0.857 0 2L0 22.253C0 23.397 0.929 24.326 2.072 24.326C3.215 24.326 4.144 23.397 4.144 22.253L4.144 3.857Z"/>
    </g>
    <g id="g72" transform="" fill="none">
     <path id="path74" transform="matrix(1.25 0 0 -1.25 0.781251 11.9325)" fill="none" stroke="#000" fill-rule="evenodd" d="M278.856 8.921L158.846 8.921L150.217 8.921L7.35 8.921L4.314 8.921C-1.438 8.921 -1.438 0 4.314 0L124.325 0L132.954 0L275.82 0L278.856 0C284.608 0 284.608 8.921 278.856 8.921"/>
    </g>
   </g>
  </g>
  <g id="g144" transform="translate(582.693, 320.865)" fill="none">
   <g id="g146" transform="" fill="none" clip-path="url(#clippath1)">
    <g id="g152" transform="" fill="none">
     <path id="path154" transform="matrix(1.25 0 0 -1.25 0.781251 126.109)" fill="none" stroke="#000" fill-rule="evenodd" d="M40.89 51.367L68.246 92.695C68.683 93.276 68.974 94.441 68.974 95.313C68.974 98.078 66.792 100.262 64.028 100.262C61.989 100.262 60.679 99.245 59.66 97.788L35.36 60.537L11.059 97.788C10.041 99.245 8.732 100.262 6.695 100.262C3.927 100.262 1.746 98.078 1.746 95.313C1.746 94.441 2.037 93.276 2.473 92.695L29.833 51.367L0.727 7.57C0.29 6.841 0 5.967 0 4.949C0 2.186 2.183 0 4.947 0C6.548 0 8.148 0.729 8.876 1.894L35.36 42.493L61.845 1.894C62.571 0.729 64.172 0 65.772 0C68.539 0 70.721 2.186 70.721 4.949C70.721 5.967 70.429 6.841 69.993 7.57L40.89 51.367"/>
    </g>
   </g>
  </g>
  <g id="g120" transform="translate(486.542, 320.866)" fill="none">
   <g id="g122" transform="" fill="none" clip-path="url(#clippath2)">
    <g id="g128" transform="" fill="none">
     <path id="path130" transform="matrix(1.25 0 0 -1.25 0.781251 127.2)" fill="none" stroke="#000" fill-rule="evenodd" d="M63.3 101.135C60.534 101.135 58.352 98.951 58.352 96.186L58.352 31.871C58.352 20.373 54.133 9.315 34.196 9.315C14.114 9.315 9.895 20.373 9.895 31.871L9.895 96.186C9.895 98.951 7.711 101.135 4.947 101.135C2.183 101.135 0 98.951 0 96.186L0 31.871C0 15.862 6.694 0 34.196 0C61.699 0 68.247 15.862 68.247 31.871L68.247 96.186C68.247 98.951 66.066 101.135 63.3 101.135"/>
    </g>
   </g>
  </g>
  <g id="g190" transform="translate(315.216, 354.326)" fill="none">
    <path fill="none" stroke="#000" d="M130.188 2.645C123.745 4.27501 122.258 12.8675 121.585 18.4038C121.526 18.8813 121.486 19.3725 121.435 19.855C116.626 21.755 112.026 23.9888 107.836 26.53C104.071 28.81 107.506 34.7213 111.286 32.4313C114.3 30.6051 117.568 28.9376 120.986 27.4388C120.921 33.6151 121.628 39.8876 123.696 45.5288C123.726 45.6063 123.763 45.6751 123.793 45.7526C123.695 45.9113 123.608 46.0713 123.508 46.2276C120.319 51.2376 113.318 56.6526 111.001 48.3001C110.48 46.4213 110.283 44.3901 110.268 42.3713C110.37 41.0126 110.426 39.6901 110.436 38.4513C110.468 34.5826 105.624 34.1801 104.066 36.9363C103.59 36.6676 103.088 36.4251 102.53 36.2263C98.7902 34.8951 94.7327 37.4963 91.9677 40.4763C90.0902 42.4938 86.6139 47.0438 85.9139 48.1038C84.3114 50.5288 82.6514 52.9063 81.1026 55.3738C80.2501 56.7301 79.4364 58.1139 78.6314 59.5026C78.5389 55.3838 77.8601 51.2813 74.8101 48.8938C65.8601 41.8926 58.0763 56.9926 53.9738 68.2464C53.5963 66.9176 53.2751 65.5464 52.9926 64.1489C59.4576 54.1726 64.2726 42.5276 67.2251 31.1526C68.6664 25.6013 68.5951 14.3775 59.5576 17.6525C48.3551 21.7088 46.1976 40.0988 45.5551 49.8151C45.2863 53.8401 45.4313 58.1076 45.9901 62.3564C45.7363 62.7314 45.4876 63.1151 45.2263 63.4864C45.1363 63.5914 45.0463 63.6876 44.9626 63.8051C42.5563 67.1789 40.1513 70.4139 37.1276 73.2739C32.8863 77.2851 29.125 77.8751 27.1613 72.1764C26.065 68.9901 25.4475 65.3051 25.2825 61.5489C29.7063 60.3326 34.1888 59.4926 38.4663 59.1601C42.8313 58.8176 42.8651 51.9801 38.4663 52.3251C34.2488 52.6526 29.8888 53.3801 25.5638 54.4388C25.9113 51.6676 26.5088 48.9888 27.44 46.6188C29.0513 42.5088 22.4375 40.7463 20.8488 44.7988C19.6125 47.9501 18.7313 52.1226 18.3675 56.5663C13.2525 58.3101 8.32376 60.5051 3.92126 63.1489C0.14625 65.4151 3.58251 71.3251 7.37001 69.0526C10.7013 67.0539 14.4038 65.2914 18.2713 63.8201C18.6513 70.3626 20.3425 76.6676 23.9413 80.5176C31.8638 89.0002 41.8776 78.9064 47.8701 71.2764C48.7926 74.4176 49.9601 77.4476 51.4563 80.2164C52.8351 82.7651 57.0576 82.2751 57.7026 79.4001C59.1526 72.9489 63.0376 60.8889 66.3714 56.6001C68.4426 53.9351 70.5801 53.7013 71.2001 55.8001C72.1251 58.9326 71.8789 62.5689 71.7364 65.7926C71.4989 71.1014 74.5714 75.7789 79.2801 71.2364C82.1489 68.4676 83.9276 64.0226 85.9176 60.6264C88.7389 66.6951 97.4189 66.4639 102.918 61.5814C104.636 60.0514 105.979 58.0876 107.03 55.8976C112.531 63.5514 122.291 58.4514 127.073 52.8401C127.478 52.3638 127.831 51.8438 128.211 51.3476C131.909 53.6663 136.891 53.4201 141.53 51.0163C149.057 47.1138 153.534 36.4276 153.848 28.36C154.017 23.95 147.184 23.9663 147.01 28.36C146.801 33.7488 144.153 39.2313 140.546 43.1501C138.503 45.3726 134.839 47.1426 131.801 45.8913C135.646 38.9376 137.988 30.8363 139.491 23.3775C139.609 22.7888 139.728 22.1163 139.839 21.3888C143.759 20.55 147.662 19.9638 151.422 19.6863C155.792 19.365 155.823 12.525 151.422 12.8525C147.808 13.1213 144.093 13.6238 140.359 14.3425C140.291 8.34501 138.698 2.285 132.851 2.28375C132.046 2.28375 131.16 2.4 130.188 2.645M130.948 10.0613C133.069 6.44751 133.654 14.6775 133.631 15.8738C131.841 16.3425 130.054 16.855 128.28 17.4175C128.843 14.7038 129.704 12.1838 130.948 10.0613M127.465 24.8838C129.144 24.29 130.844 23.74 132.555 23.2338C132.369 24.0713 132.171 24.9025 131.971 25.7288C131.069 29.4638 129.894 33.1438 128.423 36.6988C127.743 33.0538 127.363 28.9463 127.465 24.8838M59.3989 26.1638C59.9439 25.4825 60.6276 24.7663 61.4151 24.3088C61.4189 24.4225 61.4214 24.5488 61.4226 24.7038C61.4526 28.69 59.6589 33.0051 58.3951 36.7113C56.5901 42.0238 54.4038 47.3288 51.8238 52.4138C51.7888 42.5751 54.1226 32.7588 59.3989 26.1638M92.3502 58.1139C89.0377 53.3476 95.9939 43.3538 100.774 42.8451C102.873 42.6213 102.404 46.4701 101.761 49.3438C100.979 53.3463 97.4477 59.4114 94.4602 59.4126C93.7052 59.4126 92.9839 59.0239 92.3502 58.1139Z"/>
  </g>
  <g id="g200" transform="translate(565.586, 230.863)" fill="none">
   <g id="g202" transform="" fill="none" clip-path="url(#clippath4)">
    <g id="g208" transform="" fill="none">
     <path id="path210" transform="matrix(1.25 0 0 -1.25 0.781385 14.0213)" fill="none" stroke="#000" fill-rule="evenodd" d="M5.08338 0L8.93895 1.655L10.2435 5.296L8.98698 8.937L5.15937 10.592L1.3038 8.937L0 5.296L1.25689 1.655L5.08338 0"/>
    </g>
   </g>
  </g>
  <g id="g110" transform="translate(315.216, 186.999)" fill="none">
    <path fill="none" stroke="#000" d="M83.3139 3.75126C53.6951 13.1613 56.5313 51.5688 54.6851 76.0751C54.1701 82.8864 53.0488 89.2989 50.5588 94.7064C45.0038 90.8939 39.6151 86.8302 32.9563 85.1026C23.78 82.7264 9.92252 85.5139 4.60501 94.0102C-1.21875 103.316 4.67376 113.484 13.9325 117.413C26.5113 122.753 42.9513 118.571 52.6563 109.393C53.1538 108.923 53.6138 108.424 54.0701 107.925C60.6051 111.324 67.4826 113.783 75.1001 114.978C90.9414 117.464 107.889 115.411 120.071 106.075C123.35 117.061 138.075 119.57 148.328 110.673C151.157 108.216 153.582 105.279 155.659 102.054C156.047 103.359 156.517 104.624 157.088 105.841C159.473 110.911 164.492 114.181 170.208 112.804C175.707 111.481 180.005 107.969 183.514 103.615C184.91 110.265 188.732 115.645 197.24 115.611C204.93 115.58 212.564 110.414 217.705 104.186C218.207 104.759 218.73 105.313 219.292 105.836C227.962 113.93 240.24 109.036 246.889 100.99C248.797 108.081 253.51 113.398 263.014 113.789C269.499 114.056 276.259 110.878 282.334 106.978C284.662 109.224 287.703 110.76 291.508 111.145C304.672 112.474 317.179 102.359 325.423 93.2339C328.394 89.9489 331.034 86.3426 333.241 82.4939C334.407 83.6939 335.557 84.8039 336.607 85.8039C341.507 90.4614 349.369 96.0177 345.418 103.515C341.613 110.736 331.783 107.38 326.863 103.861C321.807 100.24 317.007 108.591 322.007 112.173C332.494 119.683 349.791 119.524 355.043 105.649C357.451 99.2939 356.156 93.2002 351.983 87.9114C348.552 83.5614 341.647 78.8789 337.358 73.6264C338.689 69.9389 339.628 66.1089 340.069 62.1889C341.182 52.3788 330.713 51.4451 326.046 58.1589C322.273 63.5826 323.598 69.2476 326.678 74.3264C325.789 76.1064 324.797 77.8351 323.764 79.5314C319.593 86.3764 313.604 92.2527 306.973 96.6914C302.342 99.7914 296.188 102.819 290.532 101.139C291.367 100.501 292.18 99.8714 292.954 99.2739C301.108 92.9502 312.089 82.8426 312.636 71.6776C313.102 62.1376 304.139 54.9013 295.136 59.2614C285.07 64.1351 278.717 76.4801 276.902 87.0527C276.259 90.7952 276.437 94.7864 277.455 98.4239C269.942 103.008 257.133 108.996 255.533 96.2252C255.013 92.0777 255.36 87.7314 256.159 83.4651C257.292 80.0939 258.185 76.6714 258.838 73.3314C259.877 70.2239 257.79 68.0764 255.299 67.5701C252.927 66.8126 250.169 67.6339 249.555 70.7726C247.707 80.3076 244.562 89.6127 239.253 95.2027C232.439 102.38 226.954 100.831 223.268 94.9414C226.309 88.3114 228.705 81.2014 231.205 74.4264C235.25 63.4651 239.009 52.1601 240.237 40.4901C241.044 32.8438 238.864 24 229.812 23.5938C221.444 23.215 216.708 32.6901 214.14 39.1463C211.438 45.9476 209.998 53.4201 209.373 60.9114C206.76 60.4814 203.888 60.7676 201.154 61.8014C192.047 65.2464 186.318 76.6326 184.034 83.8989C181.977 90.4402 175.92 102.495 167.915 103.475C165.037 103.828 164.52 97.5077 164.313 95.6877C163.604 89.4302 164.127 81.9476 165.019 76.2914C165.93 70.5214 157.618 67.8764 155.949 72.9489C155.393 72.4489 154.783 71.9751 154.118 71.5326C149.237 68.3151 143.55 70.2101 138.143 73.1951C133.923 75.5251 126.831 83.7076 123.198 88.2527C113.015 100.996 95.6314 117.359 59.2476 99.9414C63.1264 91.4764 63.9801 81.3014 64.5676 72.4314C65.5989 56.8813 64.4339 39.5588 71.9476 25.375C76.5076 16.775 86.1314 10.4425 96.1002 11.9075C105.214 13.2488 108.784 20.63 104.789 28.765C102.064 34.3151 110.366 39.1951 113.1 33.6238C121.796 15.9113 108.9 2.28625 92.6077 2.28625C89.5877 2.28625 86.4514 2.75375 83.3139 3.75126M218.468 69.9439C218.567 64.9751 219.09 60.0239 219.853 55.3201C220.768 49.6738 222.848 35.1113 229.765 33.1976C232.307 32.4951 227.937 53.4276 227.53 54.8763C225.163 63.3526 222.138 71.6489 218.902 79.8439C218.644 77.5801 218.548 70.5051 218.468 69.9439M287.133 85.2739C288.659 79.5376 291.974 74.1639 296.217 70.0539C298.526 67.8189 302.822 65.7889 303.058 70.6826C303.442 78.6826 293.999 86.9814 286.093 92.6714C286.105 89.8952 286.654 87.0802 287.133 85.2739M192.268 96.7202C192.268 88.8002 194.388 79.4839 200.069 73.6539C201.509 72.1751 208.904 67.6439 208.984 71.7001C208.985 71.7539 208.999 71.7976 209.003 71.8501C209.017 73.0026 209.03 74.1551 209.073 75.2901C209.299 81.4626 210.054 88.4502 212.302 94.6752C209.348 99.6227 205.399 103.654 199.232 105.598C198.399 105.861 197.665 105.981 197.017 105.981C192.822 105.981 192.268 100.926 192.268 96.7202M129.018 100.903C129.068 96.3102 131.539 91.3589 134.46 87.9402C136.591 85.4426 145.228 77.9251 149.259 79.8451C154.975 82.5676 149.192 94.0564 147.535 96.7864C147.507 96.8339 147.494 96.8802 147.467 96.9302C145.309 100.384 142.579 103.41 138.96 105.445C137.27 106.396 135.605 106.875 134.135 106.875C134.134 106.875 134.133 106.875 134.133 106.875C131.153 106.875 128.975 104.905 129.018 100.903M13.3438 105.621C8.66751 100.9 15.07 96.5614 19.17 95.1977C28.6988 92.0277 35.8076 96.1152 43.4376 101.44C43.9926 101.828 44.5538 102.183 45.1138 102.559C42.0488 105.551 38.0538 107.839 32.8088 109.178C30.5676 109.749 28.1275 110.098 25.6913 110.098C21.1225 110.098 16.5638 108.876 13.3438 105.621Z"/>
  </g>
 </g>
</svg>